<svg id="Capa_1" enable-background="new 0 0 512 512" height="512" viewBox="0 0 512 512" width="512" xmlns="http://www.w3.org/2000/svg"><g><g><g fill="#a5dbff"><path d="m113.291 124.017h-27.252c-24.849 0-44.994 20.144-44.994 44.994v7.021h72.245v-52.015z"/><path d="m425.961 124.017h-27.251v52.015h72.245v-7.021c-.001-24.85-20.145-44.994-44.994-44.994z"/><path d="m113.291 374.466h-72.245v7.021c0 24.85 20.144 44.994 44.994 44.994h140.619 199.302c24.849 0 44.994-20.145 44.994-44.994v-7.021h-72.245z"/></g><path d="m41.046 176.031h72.245v198.435h-72.245z" fill="#fff"/><path d="m398.709 176.031h72.245v198.435h-72.245z" fill="#fff"/><path d="m212.677 502h86.646l-13.981-75.519h-58.684z" fill="#fff"/><path d="m398.709 30.071c0-11.085-8.986-20.071-20.071-20.071h-245.277c-11.085 0-20.071 8.986-20.071 20.071v31.437h285.419z" fill="#9593e6"/><path d="m219.485 159.396c0-7.469-6.055-13.523-13.523-13.523h-46.712c-7.469 0-13.523 6.054-13.523 13.523v162.496c0 7.469 6.054 13.523 13.523 13.523h46.712c7.469 0 13.523-6.055 13.523-13.523z" fill="#fff"/><path d="m351.92 256.766h-82.396c-7.469 0-13.523 6.054-13.523 13.523v51.604c0 7.469 6.055 13.523 13.523 13.523h19.948v-23.684c0-8.639 7.003-15.642 15.642-15.642h11.217c8.639 0 15.642 7.003 15.642 15.642v23.684h19.948c7.469 0 13.523-6.055 13.523-13.523v-51.604c-.001-7.469-6.056-13.523-13.524-13.523z" fill="#fff"/><path d="m316.33 296.09h-11.217c-8.639 0-15.642 7.003-15.642 15.642v23.684h42.5v-23.684c0-8.639-7.003-15.642-15.641-15.642z" fill="#fff398"/><path d="m113.291 374.466h285.419v-198.435-52.015-62.509h-285.419v62.509 52.015zm92.671-39.05h-46.712c-7.469 0-13.523-6.055-13.523-13.523v-162.497c0-7.469 6.054-13.523 13.523-13.523h46.712c7.469 0 13.523 6.054 13.523 13.523v162.496c0 7.469-6.054 13.524-13.523 13.524zm159.481-13.524c0 7.469-6.055 13.523-13.523 13.523h-19.948-42.5-19.948c-7.469 0-13.523-6.055-13.523-13.523v-51.604c0-7.469 6.055-13.523 13.523-13.523h82.396c7.469 0 13.523 6.054 13.523 13.523zm0-110.892c0 7.485-6.072 13.523-13.523 13.523h-82.396c-7.454 0-13.523-6.039-13.523-13.523 0-10.807 0-39.731 0-51.604 0-7.469 6.055-13.523 13.523-13.523h82.396c7.469 0 13.523 6.054 13.523 13.523z" fill="#cbcaf3"/><path d="m351.92 145.874h-82.396c-7.469 0-13.523 6.054-13.523 13.523v45.27l27.263-22.719c5.051-4.209 12.396-4.175 17.409.079l11.297 9.589c5.025 4.265 12.392 4.287 17.441.051l4.492-3.768c4.442-3.726 10.765-4.205 15.719-1.192l15.823 9.625v-36.937c-.002-7.467-6.057-13.521-13.525-13.521z" fill="#fff"/><path d="m333.901 187.899-4.492 3.768c-5.05 4.235-12.417 4.213-17.441-.051l-11.297-9.589c-5.012-4.254-12.358-4.288-17.409-.079l-27.262 22.719v6.333c0 7.454 6.039 13.523 13.523 13.523h82.396c7.483 0 13.523-6.068 13.523-13.523v-14.667l-15.823-9.625c-4.952-3.014-11.275-2.534-15.718 1.191z" fill="#66e4d1"/></g><g><path d="m205.962 135.873h-46.712c-12.971 0-23.523 10.553-23.523 23.523v162.496c0 12.971 10.552 23.522 23.523 23.522h46.712c12.971 0 23.523-10.552 23.523-23.522v-162.496c0-12.97-10.552-23.523-23.523-23.523zm3.523 186.02c0 1.942-1.581 3.522-3.523 3.522h-46.712c-1.942 0-3.523-1.58-3.523-3.522v-162.497c0-1.942 1.581-3.523 3.523-3.523h46.712c1.942 0 3.523 1.581 3.523 3.523z"/><path d="m375.442 159.396c0-12.971-10.552-23.523-23.523-23.523h-82.396c-12.971 0-23.523 10.553-23.523 23.523v51.604c0 12.971 10.552 23.523 23.523 23.523 86.841-.042 82.573.105 84.798-.122 11.847-1.207 21.122-11.242 21.122-23.402 0-10.167-.001-41.497-.001-51.603zm-105.919-3.523h82.396c1.942 0 3.523 1.581 3.523 3.523v19.149c-.1-.024-14.374-9.708-27.968 1.693l-4.49 3.767c-1.32 1.107-3.231 1.103-4.544-.013l-11.298-9.59c-8.739-7.417-21.475-7.475-30.281-.137l-10.861 9.051v-23.92c0-1.942 1.581-3.523 3.523-3.523zm0 58.65c-1.942 0-3.523-1.581-3.523-3.523v-1.649l23.664-19.721c1.319-1.099 3.227-1.092 4.535.021l11.297 9.59c8.767 7.442 21.526 7.479 30.34.089 2.831-1.888 5.285-6.088 8.587-4.077l11.019 6.703v9.044c0 1.942-1.581 3.523-3.523 3.523z"/><path d="m351.919 246.766h-82.396c-12.971 0-23.523 10.552-23.523 23.522v51.604c0 12.971 10.552 23.522 23.523 23.522h82.396c12.971 0 23.523-10.552 23.523-23.522v-51.604c0-12.971-10.552-23.522-23.523-23.522zm-52.448 78.649v-13.683c0-3.11 2.531-5.642 5.642-5.642h11.217c3.111 0 5.642 2.531 5.642 5.642v13.683zm55.971-3.522c0 1.942-1.581 3.522-3.523 3.522h-9.948v-13.683c0-14.139-11.503-25.642-25.642-25.642h-11.217c-14.139 0-25.642 11.503-25.642 25.642v13.683h-9.948c-1.942 0-3.523-1.58-3.523-3.522v-51.604c0-1.942 1.581-3.522 3.523-3.522h82.396c1.942 0 3.523 1.58 3.523 3.522v51.604z"/><path d="m185.727 117.547h179.716c5.523 0 10-4.478 10-10s-4.477-10-10-10h-179.716c-5.523 0-10 4.478-10 10s4.477 10 10 10z"/><path d="m145.727 117.547h.025c5.523 0 9.987-4.478 9.987-10s-4.489-10-10.012-10-10 4.478-10 10 4.477 10 10 10z"/><path d="m194.106 165.5h-23c-5.523 0-10 4.478-10 10s4.477 10 10 10h23c5.523 0 10-4.478 10-10s-4.477-10-10-10z"/><path d="m194.106 199h-23c-5.523 0-10 4.478-10 10s4.477 10 10 10h23c5.523 0 10-4.478 10-10s-4.477-10-10-10z"/><path d="m194.106 232.5h-23c-5.523 0-10 4.478-10 10s4.477 10 10 10h23c5.523 0 10-4.478 10-10s-4.477-10-10-10z"/><path d="m194.106 266h-23c-5.523 0-10 4.478-10 10s4.477 10 10 10h23c5.523 0 10-4.478 10-10s-4.477-10-10-10z"/><path d="m194.106 299.5h-23c-5.523 0-10 4.478-10 10s4.477 10 10 10h23c5.523 0 10-4.478 10-10s-4.477-10-10-10z"/><path d="m368.667 25.754h-13c-5.523 0-10 4.478-10 10s4.477 10 10 10h13c5.523 0 10-4.478 10-10s-4.478-10-10-10z"/><path d="m425.96 114.017h-17.251c0-14.872 0-64.076 0-83.945 0-16.582-13.489-30.072-30.07-30.072h-245.278c-16.581 0-30.071 13.49-30.071 30.071v83.945h-17.25c-30.324 0-54.994 24.67-54.994 54.993v212.477c0 30.324 24.67 54.994 54.994 54.994h128.597l-10.279 55.52h-22.708c-5.523 0-10 4.478-10 10s4.477 10 10 10h148.699c5.523 0 10-4.478 10-10s-4.477-10-10-10h-22.708l-10.279-55.52h128.598c30.324 0 54.994-24.67 54.994-54.994 0-23.348 0-188.398 0-212.477.001-30.322-24.67-54.992-54.994-54.992zm-374.915 72.014h52.245v178.435h-52.245zm72.246-114.524h265.419v292.959h-265.419c0-12.661 0-271.684 0-292.959zm285.418 114.524h52.245v178.435h-52.245zm17.251-52.014c18.292 0 33.341 14.11 34.858 32.015h-52.109v-32.015zm-302.669-103.946c0-5.554 4.518-10.071 10.071-10.071h245.277c5.553 0 10.071 4.518 10.071 10.071v21.436h-265.419zm-37.251 103.946h17.251v32.015h-52.11c1.518-17.906 16.567-32.015 34.859-32.015zm201.262 357.983h-62.604l10.278-55.52h42.047zm138.658-75.52c-14.49 0-325.147 0-339.921 0-18.292 0-33.34-14.109-34.858-32.015h409.638c-1.518 17.906-16.567 32.015-34.859 32.015z"/></g></g></svg>